<svg xmlns="http://www.w3.org/2000/svg" xmlns:xlink="http://www.w3.org/1999/xlink" xml:space="preserve" style="enable-background:new 0 0 3710 3710" viewBox="0 0 3710 3710"><path d="M0 0h3710v3710H0z" style="fill:#fff"/><path d="M3197.6 1637.6c-75.5-494-384.9-1100.8-996.1-1164.3 0 0-464.1-56.5-921.6 29-271.5 50.9-509.6 202-660.3 419.3-150.6 217.2-201 482.1-139.9 734.6 39.7 164 66.5 333.8 59.1 502.4-12.8 293.4-5.4 567.2 279.3 742.1 254.2 156.2 574 294 879.3 318.1 207.4 16.4 440-10.1 639.9-64.1 1018.8-275.2 935.8-1023.2 860.3-1517.1z" style="fill:#f4f7fa"/><path d="M2061 2622.8c-19.7-1.5-61.2-22.4-69.8-32.3-57.2-65.9-172.2-182.3-171.2-274.5.2-15.8 69.7-33.7 78.8-48.6 41.5-22.2 57.3-27.4 86.4-67.9C2071 2080 1852 1874 2091 1786.1c175-64.2 328.1-10.2 295.7-285.2-32.4-275 162.1-788.5 462.8-610 172.6 102.4 14.1 345.2 108.5 514.2 89.7 160.5 26.5 299.3-143.4 406.4-170 107.1-73 178.5-14.7 332.4 70 184.8-217.1 232-351.6 242.5-108.3 8.4-378.3 103-387.3 236.4z" style="fill:#d8dee8"/><defs><path id="a" d="M1774.4 2294.4c48.3 127.2 92.1 258.8 140 387.2 77.6 2.5 169 3.6 181.5-92.3 17.5-133.3 244.5-195.3 352.7-203.2 134-9.7 421.6-57.6 351.4-242.3-58.4-153.7-155.3-225.2 14.7-332.3 170-107.1 233-245.9 143.4-406.5-94.3-169 64-411.7-108.5-514.1-300.7-178.6-495.3 335.2-462.8 609.9 32.6 274.6-121 222.3-295.6 285-238.4 85.7-21.6 299.2-105.4 411.2-65.7 87.8-121.5 75-211.4 97.4z"/></defs><use xlink:href="#a" style="overflow:visible;fill:#d8dee8"/><clipPath id="b"><use xlink:href="#a" style="overflow:visible"/></clipPath><g style="opacity:.8;clip-path:url(#b)"><path d="m1908.2 2460.7-1.6-3c568.8-312 891-927.7 861.6-1646.9l3.4-.1c13.9 340.7-54 670.7-196.6 954.2-73.4 146-166 278.6-275 394a1592.8 1592.8 0 0 1-391.8 301.8z" style="fill:#d8dee8"/><path d="m2209.9 2244-1.2-3.3c175.9-62.2 458.6-74.3 630.3-27l-1 3.3c-171-47.2-452.8-35-628.1 27zM2019 2398.2l-2.3-2.4c68.6-68.2 100-168.4 93.6-297.9-4.8-94.9-29.5-203-73.4-321.3l3.2-1.2c44 118.7 68.8 227.1 73.6 322.4 6.5 130.4-25.3 231.5-94.6 300.4zm574.8-674.4-2.6-2.3c122.5-135 309.1-178.5 444-191.2l.4 3.4c-134.4 12.7-320.1 56-441.8 190zm134.7-394.8h-3.4c5-205.5-121.6-380.3-197.4-466.1l2.6-2.3c76.1 86.3 203.2 261.8 198.2 468.4z" style="fill:#d8dee8"/></g><defs><path id="c" d="M2130.4 2801c-94.3 2.7-189 3.2-283.8 1.6-1.2 1.6-66.5-193 10-314.5 152.1-236.1-6.4-396.2-61.5-497.9-84.5-142.1-87.4-332.4 86.4-327.2 168.7 1 134.4-339.7 60.6-594-46.2-121.9 45.9-295.9 158.5-351.7 114.5-60.1 249.4-2 330.7 242.9 107.3 281.3-74.3 494.2-127.3 654-52.3 157 148.2 241.2 25.6 393.7-102.1 134.2-241.5 242.3-160.4 374.1 82.3 130 88.7 247-38.8 419z"/></defs><use xlink:href="#c" style="overflow:visible;fill:#bfc6d1"/><clipPath id="d"><use xlink:href="#c" style="overflow:visible"/></clipPath><path d="M2130.4 2801c-94.3 2.7-189 3.2-283.8 1.6-1.2 1.6-66.5-193 10-314.5 152.1-236.1-6.4-396.2-61.5-497.9-83.9-142.1-82.8-312.2 71.7-341.9 170.7-36.2 152-326 75.3-579.3-46.2-121.9 45.9-295.9 158.5-351.7 114.5-60.1 249.4-2 330.7 242.9 107.3 281.3-74.3 494.2-127.3 654-52.3 157 148.2 241.2 25.6 393.7-102.1 134.2-241.5 242.3-160.4 374.1 82.3 130 88.7 247-38.8 419z" style="clip-path:url(#d);fill:#bfc6d1"/><g style="opacity:.8;clip-path:url(#d)"><path d="M2006 2835.1c-.4-1.7 13.6-437.5 93.2-873.6 9.3-70 20.3-140.9 31-209.4 59.1-381.7 115-742.3-76.2-1098.9l3-1.6c86.1 160.6 129.3 338.5 132 544 2.4 183.6-27 373.5-55.5 557a9649.3 9649.3 0 0 0-31 209.4c-76.3 418.3-94.3 859.5-93.2 872.6l-3.3.5z" style="fill:#bfc6d1"/><path d="m2181 1398.1-3-1.8c82.6-132 177.8-315.5 229-414.2 39.6-76.3 41.4-79.3 43.6-79.3v3.4-1.7l1 1.4c-2.4 2.2-19.7 35.6-41.6 77.8-51.2 98.7-146.5 282.4-229 414.4zm3.8-161.6c-44.2-127-113.2-203.5-163.2-245.3-55-46-100.6-62-105.7-62h-.1s.4 0 .7-.4l-2.4-2.4c.8-.8 1.9-.8 4.5-.2 12.2 3 59.3 22 113.5 69.5 68.2 59.8 122.2 142.7 156 239.7l-3.3 1.1zM2056 2244.6c-14.7-265.8-234-477.5-327.7-556.2a100 100 0 0 1-7.2-6.2l2.7-2.2a1151 1151 0 0 1 182.6 188.8c94.6 124.5 146.1 250.8 153 375.6l-3.4.2zm22.4-135.5-3.1-1.2c78.8-197.2 308.3-250.4 311.1-250.4l1.6 1.3-.9 1.9-.8-1.5.1 1.7c-2.2.3-229.7 52.4-308 248.2zm-69.1 654.7c-7.4-53.3-42.2-140.2-166-251.6-6.7-6-6.7-6-6.7-7h1.7l1.5-.9c.3.5 2.9 2.7 5.8 5.4 124.6 112 159.6 199.8 167 253.6l-3.3.5zm9.2-104.3-3.4-.3c10.7-98.5 129.6-190 199.5-236l4.2-2.8 2 2.8-4.3 3c-69.5 45.4-187.5 136.3-198 233.3z" style="fill:#bfc6d1"/></g><path d="m3208.4 2662.6-2686.9-22.9v67.8c0 18.4 11.7 34 27.6 36.8l759.8 133.5c9 1.5 18.2 2 27.3 1.2l1843-152.1c16.5-1.4 29.2-17 29.2-36v-28.3z" style="fill:#26264f"/><path d="m2233.4 2554-1684 124a51 51 0 0 1-54.7-52.7v-1254a55.7 55.7 0 0 1 54.6-56.7h1684c24.9 0 45 23 45 51.2v1133.7c0 28.3-20.1 52.7-45 54.5z" style="fill:#26264f"/><linearGradient id="e" x1="521.5" x2="2305.1" y1="1996.4" y2="1996.4" gradientUnits="userSpaceOnUse"><stop offset="0" style="stop-color:#444b8c"/><stop offset="1" style="stop-color:#26264f"/></linearGradient><path d="m2260.2 2554-1684 124a51 51 0 0 1-54.7-52.7v-1254a55.7 55.7 0 0 1 54.7-56.7h1684c24.8 0 45 23 45 51.2v1133.7c0 28.3-20.2 52.7-45 54.5z" style="fill:url(#e)"/><linearGradient id="f" x1="594.8" x2="2244.8" y1="1984.7" y2="1984.7" gradientUnits="userSpaceOnUse"><stop offset="0" style="stop-color:#e38ddd"/><stop offset="1" style="stop-color:#9571f6"/></linearGradient><path d="M2207.8 2474.1 639.2 2581.8a41.8 41.8 0 0 1-44.4-43.2v-1098c0-25.5 20-46.3 44.4-46.4l1568.6-6.8c20.4 0 37 18.7 37 42v1000c0 23.3-16.6 43.3-37 44.7z" style="fill:url(#f)"/><path d="M1477.7 1348.9c0 11.7-8.7 21.1-19.4 21.2-10.7 0-19.4-9.4-19.4-21.1s8.7-21.2 19.4-21.2 19.4 9.4 19.4 21.1z" style="fill:#fff"/><path d="m576.2 2678 1675.5-123.3 8.5-.7a45.2 45.2 0 0 0 29.7-15c-120.6-6.6-195.5-49.4-243.8-93.6-97-88.8-80.2-176.3-184.8-234.7-130.5-72.8-233.1 19.4-332.1-71.6-60-55.2-30.6-96.3-104.4-178.8-81.9-91.4-135.1-60.6-217.4-142.9-104-104-52-184.8-141.5-259.4-108.6-90.6-225.8-6.8-329.2-93.6-44.6-37.4-69-91.9-81.9-149.8h-78.6a55.7 55.7 0 0 0-54.7 56.7v1254a51 51 0 0 0 54.7 52.7z" style="opacity:.48;fill:#fff"/><linearGradient id="g" x1="521.5" x2="3208.4" y1="2682.2" y2="2682.2" gradientUnits="userSpaceOnUse"><stop offset="0" style="stop-color:#444b8c"/><stop offset="1" style="stop-color:#26264f"/></linearGradient><path d="M2327.3 2547.2 521.5 2677.6 1309 2816c9 1.6 18.2 2 27.3 1.3l1872.2-154.6-852.3-114.6a146 146 0 0 0-28.8-.8z" style="fill:url(#g)"/><path d="m785 2678.8 1503.4-110.3 465.3 62.1-1490.4 117.8z" style="fill:#26264f"/><linearGradient id="h" x1="675.4" x2="2549.2" y1="1676.9" y2="1676.9" gradientUnits="userSpaceOnUse"><stop offset="0" style="stop-color:#ab316d"/><stop offset="1" style="stop-color:#792d3d"/></linearGradient><path d="M2549.2 1110v1121.5c0 30-19.6 32.3-44.8 33.5l-623.7 39.5-1131.4 71.4-15 1c-32.6 1.6-59-24.9-59-59.3l.8-1184.3v-96.9c0-34.3 26.3-61 58.7-59.6l2.1.1 421.1 18.3 1346.5 58.4c25 1 44.7 26.3 44.7 56.4z" style="fill:url(#h)"/><path d="M2573 1199.8v1030.6c0 30.2-19.6 55.6-44.7 56.9l-644.2 32.3-1126.6 56.5a57.8 57.8 0 0 1-59-59.4l.6-1177.3v-9.2l503.1 18.7 1346.3 50 24.6.9z" style="fill:#fff"/><linearGradient id="i" x1="1779.7" x2="997.6" y1="873.1" y2="2151.6" gradientUnits="userSpaceOnUse"><stop offset="0" style="stop-color:#ff9085"/><stop offset="1" style="stop-color:#fb6fbb"/></linearGradient><path d="M2573 1106.9v92.9l-24.4-.8-1346.2-43.4-503.3-16.2v-9.2l.3-97a59.2 59.2 0 0 1 37.4-56.3c6.7-2.5 14-3.7 21.7-3.4l397.1 17.3 1372.7 59.6c25.1 1 44.8 26.4 44.8 56.5z" style="fill:url(#i)"/><path d="M836 1056.9c0 15.1-11.5 27-25.8 26.5s-26-13.3-26-28.5 11.7-27 26-26.5a27.9 27.9 0 0 1 25.8 28.5z" style="fill:#fff"/><path d="m2448.9 1622.1-1587.1-3.5v-343.1l1587.1 41.3zM1541 2226.2l-679.2 28.6v-500.4l679.2-4.9zm907.9-38.2-767.9 32.3v-471.9l767.9-5.5z" style="fill:#d8dee8"/><path d="m1884.4 2319.6-1126.7 56.5a47 47 0 0 1-8.4-.2l-15 1c-32.6 1.6-59-24.9-59-59.3l.8-1184.3v-96.9c0-34.3 26.3-61 58.7-59.6l2.1.1c6.8-2.5 14-3.7 21.7-3.4l397 17.3a398.3 398.3 0 0 1 47.3 164.8c4.6 67.1-6 146.8-43.2 239-103 254.6 11.6 507.7 167.1 608.3 4.8 3.2 9.6 6.1 14.5 8.9 47.9 27.6 99 40.8 148.4 35.3 90-9.9 180.6 10.9 253.2 60.2a340.5 340.5 0 0 1 141.5 212.3z" style="opacity:.3;fill:#d8dee8"/><linearGradient id="j" x1="660.3" x2="1511.8" y1="3118.4" y2="3118.4" gradientUnits="userSpaceOnUse"><stop offset="0" style="stop-color:#f57e53"/><stop offset="0" style="stop-color:#f58152"/><stop offset="0" style="stop-color:#f99a4d"/><stop offset=".1" style="stop-color:#fcad49"/><stop offset=".1" style="stop-color:#feba46"/><stop offset=".2" style="stop-color:#ffc244"/><stop offset=".3" style="stop-color:#ffc444"/><stop offset=".5" style="stop-color:#fdb946"/><stop offset=".7" style="stop-color:#f99c4c"/><stop offset="1" style="stop-color:#f36f56"/></linearGradient><path d="M723.5 3053.3v82.1c0 26.5 165.7 48 370.1 48 204.4 0 370.1-21.5 370.1-48v-82H723.5z" style="fill:url(#j)"/><linearGradient id="k" x1="1089.9" x2="1134.8" y1="3022.5" y2="3398.3" gradientUnits="userSpaceOnUse"><stop offset="0" style="stop-color:#ffdb44"/><stop offset="1" style="stop-color:#feef06"/></linearGradient><path d="M1463.7 3053.3c0 26.5-165.7 48-370 48-204.5 0-370.2-21.5-370.2-48s165.7-48 370.1-48c204.4 0 370.1 21.5 370.1 48z" style="fill:url(#k)"/><linearGradient id="l" x1="1088" x2="1101.8" y1="3005.7" y2="3121.1" gradientUnits="userSpaceOnUse"><stop offset="0" style="stop-color:#ffdb44"/><stop offset="1" style="stop-color:#feef06"/></linearGradient><path d="M1093.6 3104.7c-181 0-370.3-17.3-370.3-50.7 0-1.8.7-5 2.5-5s1 2.5 1 4.3c0 21.2 150.7 44.7 366.8 44.7s366.8-23.5 366.8-44.7c0-1.8.3-3.5 2.2-3.5 1.8 0 1.3 2.4 1.3 4.2 0 33.4-189.3 50.7-370.3 50.7z" style="fill:url(#l)"/><path d="M1058.7 3056c3.6-2.5 7.4-5 11.6-7.4 4-2.5 9.4-4.7 15.9-6.7s14.6-3.5 24.4-4.8a309 309 0 0 1 36.5-2c14.3 0 27.7.4 40.3 1.4 12.5 1 23.6 2.4 33.1 4.4 9.5 2 17.3 4.3 23.3 7.2 6 2.9 9.5 6.1 10.6 9.9l41.7.4c3 0 5.7.2 8 .7 2.3.5 3.4 1 3.4 1.8v3.4l-53.5-.5c-1.9 4.2-6.7 8-14.4 11.6-7.6 3.5-17.4 6.5-29.4 9l-19.5-2.7c-1.7-.3-3.2-.6-4.3-1-1.1-.4-1.6-.9-1.7-1.4 0-.6 1.6-1.4 4.6-2.2 3-.9 6.4-1.9 10.2-3.2a103 103 0 0 0 11.2-4.4c3.6-1.7 6-3.7 7.3-6l-126.4-1.3a72.8 72.8 0 0 1-27.6 13.6 186 186 0 0 1-25.5 4.6 420.3 420.3 0 0 1-72.3.5c-11-1-20.8-2.3-29.4-4.2a91.8 91.8 0 0 1-21.1-6.9c-5.5-2.7-8.6-5.9-9.2-9.5l-34.3-.3c-3 0-5.7-.3-8.1-.7-2.4-.5-3.6-1.1-3.6-1.9v-3.4l46.9.5c2-3.7 6.3-6.8 12.8-9.5 6.5-2.7 14.5-5 23.8-7.2l15.7 2.2c4.8.7 7.2 1.5 7.2 2.4 0 .4-1 1-3 1.8l-7 2.5c-2.7 1-5.3 2.2-7.8 3.6a16.6 16.6 0 0 0-5.7 4.5l115.3 1.2zm-115.8 4.7c1 2.2 3 4.2 6.3 5.8 3.1 1.6 7.1 3 11.9 4a122 122 0 0 0 16 2.3 216.2 216.2 0 0 0 38.6-.3c5.7-.6 10.6-1.4 15-2.5a69.5 69.5 0 0 0 19.6-8.2l-107.4-1.1zm275.3-3c-1-2.4-3.2-4.4-6.8-6a61.4 61.4 0 0 0-13.7-4.4c-5.6-1.2-12-2-19.4-2.6a299.8 299.8 0 0 0-45 .2c-5.6.7-10.6 1.6-14.8 2.7a54.2 54.2 0 0 0-18.9 8.8l118.6 1.2z" style="fill:#fcb048"/><linearGradient id="m" x1="568.3" x2="582" y1="1018.8" y2="1133.8" gradientTransform="rotate(180 834.6 2064)" gradientUnits="userSpaceOnUse"><stop offset="0" style="stop-color:#f36f56"/><stop offset=".3" style="stop-color:#f99c4c"/><stop offset=".5" style="stop-color:#fdb946"/><stop offset=".7" style="stop-color:#ffc444"/><stop offset=".8" style="stop-color:#ffc244"/><stop offset=".9" style="stop-color:#feba46"/><stop offset=".9" style="stop-color:#fcad49"/><stop offset="1" style="stop-color:#f99a4d"/><stop offset="1" style="stop-color:#f58152"/><stop offset="1" style="stop-color:#f57e53"/></linearGradient><path d="M1093.7 3010.5c-165 0-336.9 14.5-364.4 42.6 1.1 1 2.1 2 3 3.2 23.2-19.5 165.1-39.2 361.4-39.2 201.3 0 345.4 20.7 363 40.7a20 20 0 0 1 2.7-3.1c-22.7-29.2-197.8-44.2-365.7-44.2z" style="fill:url(#m)"/><linearGradient id="n" x1="557.4" x2="1408.9" y1="3032.2" y2="3032.2" gradientUnits="userSpaceOnUse"><stop offset="0" style="stop-color:#f57e53"/><stop offset="0" style="stop-color:#f58152"/><stop offset="0" style="stop-color:#f99a4d"/><stop offset=".1" style="stop-color:#fcad49"/><stop offset=".1" style="stop-color:#feba46"/><stop offset=".2" style="stop-color:#ffc244"/><stop offset=".3" style="stop-color:#ffc444"/><stop offset=".5" style="stop-color:#fdb946"/><stop offset=".7" style="stop-color:#f99c4c"/><stop offset="1" style="stop-color:#f36f56"/></linearGradient><path d="M620.6 2967.1v82c0 26.6 165.7 48.1 370.1 48.1 204.4 0 370.1-21.5 370.1-48V2967H620.6z" style="fill:url(#n)"/><linearGradient id="o" x1="987.1" x2="1031.9" y1="2936.2" y2="3312.1" gradientUnits="userSpaceOnUse"><stop offset="0" style="stop-color:#ffdb44"/><stop offset="1" style="stop-color:#feef06"/></linearGradient><ellipse cx="990.7" cy="2967.1" rx="370.1" ry="48" style="fill:url(#o)"/><linearGradient id="p" x1="985.1" x2="998.9" y1="2919.5" y2="3034.9" gradientUnits="userSpaceOnUse"><stop offset="0" style="stop-color:#ffdb44"/><stop offset="1" style="stop-color:#feef06"/></linearGradient><path d="M990.7 3018.4c-181 0-370.3-17.3-370.3-50.6 0-1.8.7-5 2.5-5s1 2.5 1 4.3c0 21.1 150.7 44.7 366.8 44.7s366.8-23.6 366.8-44.7c0-1.8.3-3.6 2.2-3.6 1.8 0 1.4 2.5 1.4 4.3 0 33.4-189.3 50.6-370.4 50.6z" style="fill:url(#p)"/><path d="M955.8 2969.8c3.6-2.5 7.5-5 11.6-7.5 4.1-2.4 9.4-4.6 15.9-6.6s14.6-3.6 24.4-4.8c9.8-1.3 22-2 36.5-2 14.3 0 27.8.4 40.3 1.4 12.5 1 23.6 2.4 33.1 4.4a97.7 97.7 0 0 1 23.3 7.2c6 2.8 9.5 6.1 10.6 9.8l41.7.4c3 0 5.7.3 8 .8s3.4 1 3.5 1.8v3.4l-53.6-.5c-1.9 4.2-6.7 8-14.4 11.5a146 146 0 0 1-29.3 9.1l-19.6-2.7c-1.7-.3-3.1-.6-4.3-1-1-.4-1.6-.9-1.6-1.4 0-.6 1.5-1.4 4.5-2.2l10.2-3.2c3.8-1.2 7.5-2.7 11.2-4.4 3.6-1.7 6-3.7 7.3-6l-126.4-1.3a72.8 72.8 0 0 1-27.6 13.6c-6.8 1.8-15.3 3.3-25.4 4.5a420.3 420.3 0 0 1-72.4.6c-11-1-20.8-2.3-29.4-4.2a91.7 91.7 0 0 1-21.1-7c-5.5-2.7-8.6-5.8-9.2-9.4l-34.3-.3c-3 0-5.7-.3-8.1-.8-2.4-.4-3.6-1-3.6-1.8v-3.4l47 .4c2-3.6 6.2-6.7 12.7-9.4 6.5-2.7 14.5-5 23.8-7.2l15.7 2.2c4.8.6 7.2 1.4 7.2 2.3 0 .5-1 1.1-3 1.8l-7 2.6c-2.7 1-5.3 2.2-7.8 3.5a16.6 16.6 0 0 0-5.7 4.6l115.3 1.2zm-115.8 4.6c1 2.3 3 4.2 6.3 5.9 3.2 1.6 7.1 3 11.9 4 4.8 1 10.1 1.8 16 2.3a215.7 215.7 0 0 0 38.7-.3c5.6-.6 10.5-1.4 14.8-2.5a69.3 69.3 0 0 0 19.8-8.3l-107.5-1zm275.3-3c-1-2.3-3.2-4.3-6.8-6a61.4 61.4 0 0 0-13.7-4.3c-5.5-1.2-12-2-19.4-2.6a299.8 299.8 0 0 0-45 .2c-5.6.7-10.6 1.6-14.8 2.7a54.3 54.3 0 0 0-18.9 8.8l118.6 1.2z" style="fill:#fcb048"/><linearGradient id="q" x1="671.2" x2="684.9" y1="1105" y2="1220.1" gradientTransform="rotate(180 834.6 2064)" gradientUnits="userSpaceOnUse"><stop offset="0" style="stop-color:#f36f56"/><stop offset=".3" style="stop-color:#f99c4c"/><stop offset=".5" style="stop-color:#fdb946"/><stop offset=".7" style="stop-color:#ffc444"/><stop offset=".8" style="stop-color:#ffc244"/><stop offset=".9" style="stop-color:#feba46"/><stop offset=".9" style="stop-color:#fcad49"/><stop offset="1" style="stop-color:#f99a4d"/><stop offset="1" style="stop-color:#f58152"/><stop offset="1" style="stop-color:#f57e53"/></linearGradient><path d="M990.8 2924.3c-165 0-336.9 14.5-364.3 42.6l3 3.2c23.1-19.6 165-39.2 361.3-39.2 201.3 0 345.5 20.7 363 40.7a27 27 0 0 1 2.7-3.2c-22.7-29-197.8-44.1-365.7-44.1z" style="fill:url(#q)"/><linearGradient id="r" x1="646.1" x2="1497.7" y1="2946.2" y2="2946.2" gradientUnits="userSpaceOnUse"><stop offset="0" style="stop-color:#f57e53"/><stop offset="0" style="stop-color:#f58152"/><stop offset="0" style="stop-color:#f99a4d"/><stop offset=".1" style="stop-color:#fcad49"/><stop offset=".1" style="stop-color:#feba46"/><stop offset=".2" style="stop-color:#ffc244"/><stop offset=".3" style="stop-color:#ffc444"/><stop offset=".5" style="stop-color:#fdb946"/><stop offset=".7" style="stop-color:#f99c4c"/><stop offset="1" style="stop-color:#f36f56"/></linearGradient><path d="M709.4 2881.1v82.1c0 26.5 165.7 48 370.1 48 204.4 0 370.1-21.5 370.1-48v-82H709.4z" style="fill:url(#r)"/><linearGradient id="s" x1="1075.8" x2="1120.7" y1="2850.3" y2="3226.1" gradientUnits="userSpaceOnUse"><stop offset="0" style="stop-color:#ffdb44"/><stop offset="1" style="stop-color:#feef06"/></linearGradient><path d="M1449.6 2881.1c0 26.5-165.7 48-370 48s-370.2-21.5-370.2-48 165.7-48 370.1-48 370.1 21.5 370.1 48z" style="fill:url(#s)"/><linearGradient id="t" x1="1073.9" x2="1087.7" y1="2833.5" y2="2948.9" gradientUnits="userSpaceOnUse"><stop offset="0" style="stop-color:#ffdb44"/><stop offset="1" style="stop-color:#feef06"/></linearGradient><path d="M1079.5 2932.5c-181 0-370.3-17.3-370.3-50.7 0-1.8.7-5 2.5-5s1 2.5 1 4.3c0 21.2 150.7 44.7 366.8 44.7s366.8-23.5 366.8-44.7c0-1.8.3-3.5 2.1-3.5 1.9 0 1.4 2.4 1.4 4.3 0 33.3-189.3 50.6-370.3 50.6z" style="fill:url(#t)"/><path d="M1044.5 2883.8c3.7-2.5 7.5-5 11.7-7.4 4-2.5 9.4-4.7 15.9-6.7s14.6-3.5 24.4-4.8c9.7-1.2 22-1.9 36.5-2 14.3 0 27.7.4 40.3 1.4a274 274 0 0 1 33.1 4.4c9.5 2 17.3 4.3 23.3 7.2 6 2.9 9.5 6.1 10.6 9.8l41.7.5c3 0 5.7.2 8 .7 2.3.5 3.4 1 3.4 1.8v3.4l-53.5-.5c-2 4.2-6.7 8-14.4 11.6-7.6 3.5-17.4 6.5-29.4 9l-19.5-2.7c-1.7-.3-3.2-.6-4.3-1-1.1-.4-1.7-.9-1.7-1.4 0-.6 1.5-1.4 4.6-2.2 3-.9 6.4-1.9 10.2-3.2 3.8-1.2 7.5-2.7 11.2-4.4 3.6-1.7 6-3.7 7.3-6l-126.5-1.3a72.7 72.7 0 0 1-27.6 13.6c-6.7 1.8-15.2 3.4-25.4 4.6a418.5 418.5 0 0 1-72.3.5 232 232 0 0 1-29.4-4.2 91.7 91.7 0 0 1-21.1-6.9c-5.5-2.7-8.6-5.9-9.2-9.5l-34.3-.3c-3 0-5.7-.3-8.1-.7-2.4-.5-3.6-1.1-3.6-1.9v-3.4l46.9.5c2-3.7 6.3-6.8 12.8-9.5 6.5-2.7 14.4-5 23.8-7.2l15.7 2.2c4.8.7 7.2 1.5 7.2 2.4 0 .4-1 1-3 1.8l-7 2.5c-2.7 1-5.3 2.2-7.8 3.6a16.6 16.6 0 0 0-5.7 4.5l115.2 1.2zm-115.7 4.7c1 2.2 3 4.2 6.3 5.8 3.1 1.6 7.1 3 11.9 4 4.7 1 10.1 1.8 16 2.3a215.7 215.7 0 0 0 38.6-.3 115 115 0 0 0 15-2.5 69.3 69.3 0 0 0 19.6-8.2l-107.4-1.1zm275.3-3c-1-2.4-3.2-4.4-6.8-6a61.5 61.5 0 0 0-13.7-4.4c-5.6-1.2-12-2-19.4-2.6a299.8 299.8 0 0 0-45 .3c-5.6.6-10.6 1.5-14.8 2.7a54.2 54.2 0 0 0-18.9 8.7l118.6 1.2z" style="fill:#fcb048"/><linearGradient id="u" x1="582.4" x2="596.1" y1="1191" y2="1306" gradientTransform="rotate(180 834.6 2064)" gradientUnits="userSpaceOnUse"><stop offset="0" style="stop-color:#f36f56"/><stop offset=".3" style="stop-color:#f99c4c"/><stop offset=".5" style="stop-color:#fdb946"/><stop offset=".7" style="stop-color:#ffc444"/><stop offset=".8" style="stop-color:#ffc244"/><stop offset=".9" style="stop-color:#feba46"/><stop offset=".9" style="stop-color:#fcad49"/><stop offset="1" style="stop-color:#f99a4d"/><stop offset="1" style="stop-color:#f58152"/><stop offset="1" style="stop-color:#f57e53"/></linearGradient><path d="M1079.6 2838.3c-165 0-336.9 14.5-364.4 42.6 1.1 1 2.1 2 3 3.2 23.2-19.5 165-39.2 361.4-39.2 201.3 0 345.4 20.7 362.9 40.7a28 28 0 0 1 2.8-3.1c-22.7-29.1-197.8-44.2-365.7-44.2z" style="fill:url(#u)"/><linearGradient id="v" x1="700" x2="1551.6" y1="2860" y2="2860" gradientUnits="userSpaceOnUse"><stop offset="0" style="stop-color:#f57e53"/><stop offset="0" style="stop-color:#f58152"/><stop offset="0" style="stop-color:#f99a4d"/><stop offset=".1" style="stop-color:#fcad49"/><stop offset=".1" style="stop-color:#feba46"/><stop offset=".2" style="stop-color:#ffc244"/><stop offset=".3" style="stop-color:#ffc444"/><stop offset=".5" style="stop-color:#fdb946"/><stop offset=".7" style="stop-color:#f99c4c"/><stop offset="1" style="stop-color:#f36f56"/></linearGradient><path d="M763.3 2794.9v82c0 26.6 165.7 48.1 370 48.1 204.5 0 370.2-21.5 370.2-48v-82.1H763.3z" style="fill:url(#v)"/><linearGradient id="w" x1="1129.7" x2="1174.6" y1="2764" y2="3139.9" gradientUnits="userSpaceOnUse"><stop offset="0" style="stop-color:#ffdb44"/><stop offset="1" style="stop-color:#feef06"/></linearGradient><ellipse cx="1133.4" cy="2794.9" rx="370.1" ry="48" style="fill:url(#w)"/><linearGradient id="x" x1="1127.8" x2="1141.5" y1="2747.3" y2="2862.7" gradientUnits="userSpaceOnUse"><stop offset="0" style="stop-color:#ffdb44"/><stop offset="1" style="stop-color:#feef06"/></linearGradient><path d="M1133.4 2846.2c-181 0-370.3-17.3-370.3-50.6 0-1.8.6-5 2.5-5 1.8 0 1 2.5 1 4.3 0 21.1 150.6 44.7 366.8 44.7 216.1 0 366.8-23.6 366.8-44.7 0-1.8.3-3.6 2.1-3.6s1.4 2.5 1.4 4.3c0 33.4-189.3 50.6-370.3 50.6z" style="fill:url(#x)"/><path d="M1098.4 2797.6c3.6-2.5 7.5-5 11.6-7.5 4.1-2.4 9.5-4.6 16-6.6a152 152 0 0 1 24.3-4.8c9.8-1.3 22-2 36.6-2 14.3 0 27.7.4 40.3 1.4a274 274 0 0 1 33 4.4 96.2 96.2 0 0 1 23.3 7.2c6 2.8 9.5 6.1 10.7 9.8l41.7.4c3 0 5.7.3 8 .8s3.4 1 3.4 1.8v3.4l-53.6-.5c-1.8 4.2-6.6 8-14.3 11.5-7.7 3.5-17.5 6.5-29.4 9.1l-19.5-2.7c-1.8-.3-3.2-.6-4.3-1-1.1-.4-1.7-.9-1.7-1.4 0-.6 1.5-1.4 4.5-2.2l10.3-3.2c3.7-1.2 7.5-2.7 11.1-4.4 3.7-1.7 6.1-3.7 7.4-6l-126.5-1.3a72.8 72.8 0 0 1-27.6 13.6c-6.8 1.8-15.2 3.4-25.4 4.5a380.9 380.9 0 0 1-72.3.6c-11-1-20.9-2.3-29.4-4.2a91.7 91.7 0 0 1-21.1-7c-5.5-2.7-8.6-5.8-9.2-9.4l-34.4-.3c-3 0-5.6-.3-8-.8-2.4-.4-3.6-1-3.6-1.8v-3.4l46.9.4c2-3.6 6.3-6.7 12.8-9.4 6.5-2.7 14.4-5 23.8-7.2l15.7 2.2c4.8.7 7.1 1.4 7.1 2.3 0 .5-1 1.1-2.9 1.8l-7 2.6a62 62 0 0 0-7.9 3.6 16.6 16.6 0 0 0-5.7 4.5l115.3 1.2zm-115.7 4.7c1 2.2 3 4.1 6.2 5.8 3.2 1.6 7.2 3 12 4a122 122 0 0 0 16 2.3 216.1 216.1 0 0 0 38.6-.3c5.6-.6 10.6-1.4 14.9-2.5a69.5 69.5 0 0 0 19.7-8.3l-107.4-1zm275.3-3.1c-1-2.3-3.3-4.3-6.8-6a61.5 61.5 0 0 0-13.7-4.3c-5.6-1.2-12-2-19.5-2.6a300.3 300.3 0 0 0-44.9.2c-5.7.7-10.6 1.6-14.8 2.7a54.2 54.2 0 0 0-19 8.8l118.7 1.2z" style="fill:#fcb048"/><linearGradient id="y" x1="528.5" x2="542.3" y1="1277.2" y2="1392.3" gradientTransform="rotate(180 834.6 2064)" gradientUnits="userSpaceOnUse"><stop offset="0" style="stop-color:#f36f56"/><stop offset=".3" style="stop-color:#f99c4c"/><stop offset=".5" style="stop-color:#fdb946"/><stop offset=".7" style="stop-color:#ffc444"/><stop offset=".8" style="stop-color:#ffc244"/><stop offset=".9" style="stop-color:#feba46"/><stop offset=".9" style="stop-color:#fcad49"/><stop offset="1" style="stop-color:#f99a4d"/><stop offset="1" style="stop-color:#f58152"/><stop offset="1" style="stop-color:#f57e53"/></linearGradient><path d="M1133.4 2752c-165 0-336.8 14.6-364.3 42.7l3 3.2c23.2-19.6 165-39.2 361.3-39.2 201.4 0 345.5 20.7 363 40.7a34 34 0 0 1 2.7-3.2c-22.7-29-197.7-44.1-365.7-44.1z" style="fill:url(#y)"/><linearGradient id="z" x1="660.3" x2="1511.8" y1="2766.9" y2="2766.9" gradientUnits="userSpaceOnUse"><stop offset="0" style="stop-color:#f57e53"/><stop offset="0" style="stop-color:#f58152"/><stop offset="0" style="stop-color:#f99a4d"/><stop offset=".1" style="stop-color:#fcad49"/><stop offset=".1" style="stop-color:#feba46"/><stop offset=".2" style="stop-color:#ffc244"/><stop offset=".3" style="stop-color:#ffc444"/><stop offset=".5" style="stop-color:#fdb946"/><stop offset=".7" style="stop-color:#f99c4c"/><stop offset="1" style="stop-color:#f36f56"/></linearGradient><path d="M723.5 2701.9v82c0 26.6 165.7 48 370.1 48 204.4 0 370.1-21.4 370.1-48v-82H723.5z" style="fill:url(#z)"/><linearGradient id="A" x1="1089.9" x2="1134.8" y1="2671" y2="3046.8" gradientUnits="userSpaceOnUse"><stop offset="0" style="stop-color:#ffdb44"/><stop offset="1" style="stop-color:#feef06"/></linearGradient><ellipse cx="1093.6" cy="2701.9" rx="370.1" ry="48" style="fill:url(#A)"/><linearGradient id="B" x1="1088" x2="1101.8" y1="2654.2" y2="2769.7" gradientUnits="userSpaceOnUse"><stop offset="0" style="stop-color:#ffdb44"/><stop offset="1" style="stop-color:#feef06"/></linearGradient><path d="M1093.6 2753.2c-181 0-370.3-17.3-370.3-50.6 0-1.9.7-5 2.5-5s1 2.4 1 4.3c0 21.1 150.7 44.7 366.8 44.7s366.8-23.6 366.8-44.7c0-1.9.3-3.6 2.2-3.6 1.8 0 1.3 2.5 1.3 4.3 0 33.3-189.3 50.6-370.3 50.6z" style="fill:url(#B)"/><path d="M1058.7 2704.5c3.6-2.5 7.4-5 11.6-7.4a74 74 0 0 1 15.9-6.6 152 152 0 0 1 24.4-4.8c9.7-1.3 22-2 36.5-2 14.3 0 27.7.4 40.3 1.3a274 274 0 0 1 33.1 4.4c9.5 2 17.3 4.4 23.3 7.2 6 3 9.5 6.2 10.6 9.9l41.7.4c3 0 5.7.3 8 .8 2.3.4 3.4 1 3.4 1.8v3.4l-53.5-.5c-1.9 4.2-6.7 8-14.4 11.5-7.6 3.5-17.4 6.5-29.4 9l-19.5-2.6c-1.7-.3-3.2-.6-4.3-1-1.1-.5-1.6-1-1.7-1.4 0-.7 1.6-1.4 4.6-2.3 3-.8 6.4-1.9 10.2-3.1 3.8-1.3 7.5-2.7 11.2-4.4 3.6-1.7 6-3.8 7.3-6.1l-126.4-1.3a72.8 72.8 0 0 1-27.6 13.6c-6.8 1.9-15.3 3.4-25.5 4.6a420.3 420.3 0 0 1-72.3.6c-11-1-20.8-2.4-29.4-4.2a91.7 91.7 0 0 1-21.1-7c-5.5-2.7-8.6-5.9-9.2-9.4l-34.3-.4c-3 0-5.7-.2-8.1-.7-2.4-.4-3.6-1-3.6-1.8v-3.4l46.9.4c2-3.6 6.3-6.8 12.8-9.4 6.5-2.7 14.5-5.1 23.8-7.2l15.7 2.2c4.8.6 7.2 1.4 7.2 2.3 0 .5-1 1.1-3 1.8l-7 2.6c-2.7 1-5.3 2.2-7.8 3.5a16.6 16.6 0 0 0-5.7 4.6l115.3 1.1zm-115.8 4.7c1 2.3 3 4.2 6.3 5.8 3.1 1.7 7.1 3 11.9 4a122 122 0 0 0 16 2.4 216.2 216.2 0 0 0 38.6-.3c5.7-.6 10.6-1.5 15-2.5a69.3 69.3 0 0 0 19.6-8.3l-107.4-1zm275.3-3c-1-2.3-3.2-4.3-6.8-6a61.5 61.5 0 0 0-13.7-4.4c-5.6-1.1-12-2-19.4-2.6a300.3 300.3 0 0 0-45 .3c-5.6.7-10.6 1.6-14.8 2.7a54.1 54.1 0 0 0-18.9 8.8l118.6 1.2z" style="fill:#fcb048"/><linearGradient id="C" x1="568.3" x2="582" y1="1370.3" y2="1485.3" gradientTransform="rotate(180 834.6 2064)" gradientUnits="userSpaceOnUse"><stop offset="0" style="stop-color:#f36f56"/><stop offset=".3" style="stop-color:#f99c4c"/><stop offset=".5" style="stop-color:#fdb946"/><stop offset=".7" style="stop-color:#ffc444"/><stop offset=".8" style="stop-color:#ffc244"/><stop offset=".9" style="stop-color:#feba46"/><stop offset=".9" style="stop-color:#fcad49"/><stop offset="1" style="stop-color:#f99a4d"/><stop offset="1" style="stop-color:#f58152"/><stop offset="1" style="stop-color:#f57e53"/></linearGradient><path d="M1093.7 2659c-165 0-336.9 14.6-364.4 42.7 1.1 1 2.1 2 3 3.1 23.2-19.5 165.1-39.1 361.4-39.1 201.3 0 345.4 20.6 363 40.6l2.7-3.1c-22.7-29.1-197.8-44.2-365.7-44.2z" style="fill:url(#C)"/><linearGradient id="D" x1="557.4" x2="1408.9" y1="2680.7" y2="2680.7" gradientUnits="userSpaceOnUse"><stop offset="0" style="stop-color:#f57e53"/><stop offset="0" style="stop-color:#f58152"/><stop offset="0" style="stop-color:#f99a4d"/><stop offset=".1" style="stop-color:#fcad49"/><stop offset=".1" style="stop-color:#feba46"/><stop offset=".2" style="stop-color:#ffc244"/><stop offset=".3" style="stop-color:#ffc444"/><stop offset=".5" style="stop-color:#fdb946"/><stop offset=".7" style="stop-color:#f99c4c"/><stop offset="1" style="stop-color:#f36f56"/></linearGradient><path d="M620.6 2615.6v82.1c0 26.6 165.7 48 370.1 48 204.4 0 370.1-21.4 370.1-48v-82H620.6z" style="fill:url(#D)"/><linearGradient id="E" x1="987.1" x2="1031.9" y1="2584.8" y2="2960.6" gradientUnits="userSpaceOnUse"><stop offset="0" style="stop-color:#ffdb44"/><stop offset="1" style="stop-color:#feef06"/></linearGradient><ellipse cx="990.7" cy="2615.6" rx="370.1" ry="48" style="fill:url(#E)"/><linearGradient id="F" x1="985.1" x2="998.9" y1="2568" y2="2683.4" gradientUnits="userSpaceOnUse"><stop offset="0" style="stop-color:#ffdb44"/><stop offset="1" style="stop-color:#feef06"/></linearGradient><path d="M990.7 2667c-181 0-370.3-17.3-370.3-50.7 0-1.8.7-5 2.5-5s1 2.5 1 4.3c0 21.2 150.7 44.8 366.8 44.8s366.8-23.6 366.8-44.8c0-1.8.3-3.5 2.2-3.5 1.8 0 1.4 2.4 1.4 4.3 0 33.3-189.3 50.6-370.4 50.6z" style="fill:url(#F)"/><path d="M955.8 2618.3c3.6-2.5 7.5-5 11.6-7.4 4.1-2.5 9.4-4.7 15.9-6.6a152 152 0 0 1 24.4-4.9c9.8-1.2 22-1.9 36.5-2 14.3 0 27.8.4 40.3 1.4 12.5 1 23.6 2.5 33.1 4.4 9.6 2 17.3 4.4 23.3 7.2 6 2.9 9.5 6.2 10.6 9.9l41.7.4c3 0 5.7.3 8 .7 2.3.5 3.4 1.1 3.5 1.8v3.5l-53.6-.5c-1.9 4.2-6.7 8-14.4 11.5-7.6 3.5-17.4 6.5-29.3 9l-19.6-2.7a21 21 0 0 1-4.3-1c-1-.4-1.6-.8-1.6-1.3 0-.7 1.5-1.4 4.5-2.3 3-.8 6.4-1.9 10.2-3.1a103 103 0 0 0 11.2-4.5 15 15 0 0 0 7.3-6l-126.4-1.3a72.8 72.8 0 0 1-27.6 13.6c-6.8 1.9-15.3 3.4-25.4 4.6a378.7 378.7 0 0 1-72.4.5c-11-.9-20.8-2.3-29.4-4.2a91.8 91.8 0 0 1-21.1-6.9c-5.5-2.7-8.6-5.9-9.2-9.4l-34.3-.4c-3 0-5.7-.3-8.1-.7-2.4-.5-3.6-1-3.6-1.8v-3.5l47 .5c2-3.6 6.2-6.8 12.7-9.5 6.5-2.7 14.5-5 23.8-7.1l15.7 2.1c4.8.7 7.2 1.5 7.2 2.4 0 .5-1 1-3 1.8l-7 2.6c-2.7 1-5.3 2.1-7.8 3.5a16.6 16.6 0 0 0-5.7 4.6l115.3 1.1zM840 2623c1 2.2 3 4.2 6.3 5.8 3.2 1.6 7.1 3 11.9 4a122 122 0 0 0 16 2.4 215.7 215.7 0 0 0 38.7-.3c5.6-.7 10.5-1.5 14.8-2.6 4.3-1 8-2.2 11.2-3.7s6-2.9 8.6-4.5L840 2623zm275.3-3c-1-2.4-3.2-4.3-6.8-6a61.4 61.4 0 0 0-13.7-4.4c-5.5-1.2-12-2-19.4-2.6a299.8 299.8 0 0 0-45 .3c-5.6.6-10.6 1.5-14.8 2.7a54.2 54.2 0 0 0-18.9 8.7l118.6 1.2z" style="fill:#fcb048"/><linearGradient id="G" x1="671.2" x2="684.9" y1="1456.5" y2="1571.5" gradientTransform="rotate(180 834.6 2064)" gradientUnits="userSpaceOnUse"><stop offset="0" style="stop-color:#f36f56"/><stop offset=".3" style="stop-color:#f99c4c"/><stop offset=".5" style="stop-color:#fdb946"/><stop offset=".7" style="stop-color:#ffc444"/><stop offset=".8" style="stop-color:#ffc244"/><stop offset=".9" style="stop-color:#feba46"/><stop offset=".9" style="stop-color:#fcad49"/><stop offset="1" style="stop-color:#f99a4d"/><stop offset="1" style="stop-color:#f58152"/><stop offset="1" style="stop-color:#f57e53"/></linearGradient><path d="M990.8 2572.8c-165 0-336.9 14.5-364.3 42.6l3 3.2c23.1-19.5 165-39.2 361.3-39.2 201.3 0 345.5 20.7 363 40.7l2.7-3.1c-22.7-29.1-197.8-44.2-365.7-44.2z" style="fill:url(#G)"/><linearGradient id="H" x1="646.1" x2="1497.7" y1="2594.7" y2="2594.7" gradientUnits="userSpaceOnUse"><stop offset="0" style="stop-color:#f57e53"/><stop offset="0" style="stop-color:#f58152"/><stop offset="0" style="stop-color:#f99a4d"/><stop offset=".1" style="stop-color:#fcad49"/><stop offset=".1" style="stop-color:#feba46"/><stop offset=".2" style="stop-color:#ffc244"/><stop offset=".3" style="stop-color:#ffc444"/><stop offset=".5" style="stop-color:#fdb946"/><stop offset=".7" style="stop-color:#f99c4c"/><stop offset="1" style="stop-color:#f36f56"/></linearGradient><path d="M709.4 2529.7v82c0 26.6 165.7 48 370.1 48 204.4 0 370.1-21.4 370.1-48v-82H709.4z" style="fill:url(#H)"/><linearGradient id="I" x1="1075.8" x2="1120.7" y1="2498.8" y2="2874.6" gradientUnits="userSpaceOnUse"><stop offset="0" style="stop-color:#ffdb44"/><stop offset="1" style="stop-color:#feef06"/></linearGradient><ellipse cx="1079.5" cy="2529.7" rx="370.1" ry="48" style="fill:url(#I)"/><linearGradient id="J" x1="1073.9" x2="1087.7" y1="2482" y2="2597.5" gradientUnits="userSpaceOnUse"><stop offset="0" style="stop-color:#ffdb44"/><stop offset="1" style="stop-color:#feef06"/></linearGradient><path d="M1079.5 2581c-181 0-370.3-17.3-370.3-50.6 0-1.9.7-5 2.5-5s1 2.4 1 4.3c0 21.1 150.7 44.7 366.8 44.7s366.8-23.6 366.8-44.7c0-1.9.3-3.6 2.1-3.6 1.9 0 1.4 2.5 1.4 4.3 0 33.3-189.3 50.6-370.3 50.6z" style="fill:url(#J)"/><path d="M1044.5 2532.4c3.7-2.6 7.5-5 11.7-7.5a74 74 0 0 1 15.9-6.6 152 152 0 0 1 24.4-4.8 309 309 0 0 1 36.5-2c14.3 0 27.7.4 40.3 1.3 12.5 1 23.6 2.5 33.1 4.4 9.5 2 17.3 4.4 23.3 7.2 6 3 9.5 6.2 10.6 9.9l41.7.4c3 0 5.7.3 8 .8 2.3.4 3.4 1 3.4 1.8v3.4l-53.5-.5c-2 4.2-6.7 8-14.4 11.5-7.6 3.5-17.4 6.5-29.4 9l-19.5-2.6c-1.7-.3-3.2-.6-4.3-1-1.1-.5-1.7-1-1.7-1.4 0-.7 1.5-1.4 4.6-2.3 3-.8 6.4-1.9 10.2-3.1a103 103 0 0 0 11.2-4.4c3.6-1.7 6-3.8 7.3-6.1l-126.5-1.3a72.7 72.7 0 0 1-27.6 13.6c-6.7 1.9-15.2 3.4-25.4 4.6a418.5 418.5 0 0 1-72.3.6c-11-1-20.8-2.4-29.4-4.2a91.8 91.8 0 0 1-21.1-7c-5.5-2.7-8.6-5.8-9.2-9.4l-34.3-.4c-3 0-5.7-.2-8.1-.7-2.4-.4-3.6-1-3.6-1.8v-3.4l46.9.4c2-3.6 6.3-6.8 12.8-9.4 6.5-2.7 14.4-5.1 23.8-7.2l15.7 2.2c4.8.6 7.2 1.4 7.2 2.3 0 .5-1 1.1-3 1.8l-7 2.6c-2.7 1-5.3 2.2-7.8 3.5a16.6 16.6 0 0 0-5.7 4.6l115.2 1.2zm-115.7 4.6c1 2.3 3 4.2 6.3 5.8 3.1 1.7 7.1 3 11.9 4a122 122 0 0 0 16 2.4 215.7 215.7 0 0 0 38.6-.3c5.7-.6 10.6-1.5 15-2.5a69.6 69.6 0 0 0 19.6-8.3l-107.4-1zm275.3-3c-1-2.3-3.2-4.3-6.8-6a61.4 61.4 0 0 0-13.7-4.4c-5.6-1.1-12-2-19.4-2.6a299.8 299.8 0 0 0-45 .3c-5.6.7-10.6 1.6-14.8 2.7a54.3 54.3 0 0 0-18.9 8.8l118.6 1.2z" style="fill:#fcb048"/><linearGradient id="K" x1="582.4" x2="596.1" y1="1542.5" y2="1657.5" gradientTransform="rotate(180 834.6 2064)" gradientUnits="userSpaceOnUse"><stop offset="0" style="stop-color:#f36f56"/><stop offset=".3" style="stop-color:#f99c4c"/><stop offset=".5" style="stop-color:#fdb946"/><stop offset=".7" style="stop-color:#ffc444"/><stop offset=".8" style="stop-color:#ffc244"/><stop offset=".9" style="stop-color:#feba46"/><stop offset=".9" style="stop-color:#fcad49"/><stop offset="1" style="stop-color:#f99a4d"/><stop offset="1" style="stop-color:#f58152"/><stop offset="1" style="stop-color:#f57e53"/></linearGradient><path d="M1079.6 2486.8c-165 0-336.9 14.6-364.4 42.7 1.1 1 2.1 2 3 3.1 23.2-19.5 165-39.1 361.4-39.1 201.3 0 345.4 20.6 362.9 40.6.9-1 1.8-2.1 2.8-3-22.7-29.2-197.8-44.3-365.7-44.3z" style="fill:url(#K)"/><linearGradient id="L" x1="600" x2="1451.5" y1="2508.5" y2="2508.5" gradientUnits="userSpaceOnUse"><stop offset="0" style="stop-color:#f57e53"/><stop offset="0" style="stop-color:#f58152"/><stop offset="0" style="stop-color:#f99a4d"/><stop offset=".1" style="stop-color:#fcad49"/><stop offset=".1" style="stop-color:#feba46"/><stop offset=".2" style="stop-color:#ffc244"/><stop offset=".3" style="stop-color:#ffc444"/><stop offset=".5" style="stop-color:#fdb946"/><stop offset=".7" style="stop-color:#f99c4c"/><stop offset="1" style="stop-color:#f36f56"/></linearGradient><path d="M663.2 2443.4v82.1c0 26.6 165.7 48 370.1 48s370.1-21.4 370.1-48v-82H663.2z" style="fill:url(#L)"/><linearGradient id="M" x1="1029.7" x2="1074.5" y1="2412.6" y2="2788.4" gradientUnits="userSpaceOnUse"><stop offset="0" style="stop-color:#ffdb44"/><stop offset="1" style="stop-color:#feef06"/></linearGradient><ellipse cx="1033.3" cy="2443.4" rx="370.1" ry="48" style="fill:url(#M)"/><linearGradient id="N" x1="1027.7" x2="1041.5" y1="2395.8" y2="2511.2" gradientUnits="userSpaceOnUse"><stop offset="0" style="stop-color:#ffdb44"/><stop offset="1" style="stop-color:#feef06"/></linearGradient><path d="M1033.3 2494.8c-181 0-370.3-17.3-370.3-50.7 0-1.8.7-5 2.5-5s1 2.5 1 4.3c0 21.2 150.7 44.8 366.8 44.8 216.2 0 366.8-23.6 366.8-44.8 0-1.8.3-3.5 2.2-3.5 1.8 0 1.4 2.4 1.4 4.3 0 33.3-189.3 50.6-370.4 50.6z" style="fill:url(#N)"/><path d="M998.4 2446.1c3.6-2.5 7.5-5 11.6-7.4 4.1-2.5 9.4-4.7 15.9-6.6a152 152 0 0 1 24.4-4.9c9.8-1.2 22-1.9 36.5-2 14.3 0 27.8.4 40.3 1.4 12.5 1 23.6 2.5 33.1 4.4 9.6 2 17.3 4.4 23.3 7.2 6 2.9 9.5 6.2 10.6 9.9l41.7.4c3 0 5.7.3 8 .7 2.3.5 3.5 1.1 3.5 1.8v3.5l-53.6-.5c-1.9 4.2-6.7 8-14.4 11.5-7.6 3.5-17.4 6.5-29.3 9l-19.6-2.7a21 21 0 0 1-4.3-1c-1-.4-1.6-.8-1.6-1.3 0-.7 1.5-1.4 4.5-2.3 3-.8 6.4-1.9 10.2-3.1a103 103 0 0 0 11.2-4.5 15 15 0 0 0 7.3-6l-126.4-1.3a72.7 72.7 0 0 1-27.6 13.6c-6.8 1.9-15.3 3.4-25.4 4.6a378.7 378.7 0 0 1-72.4.5c-11-.9-20.8-2.3-29.4-4.2a91.8 91.8 0 0 1-21.1-6.9c-5.5-2.7-8.6-5.9-9.2-9.4l-34.3-.4c-3 0-5.7-.2-8.1-.7-2.4-.5-3.6-1-3.6-1.8v-3.5l47 .5c2-3.6 6.2-6.8 12.7-9.5 6.5-2.7 14.5-5 23.8-7.1l15.7 2.1c4.8.7 7.2 1.5 7.2 2.4 0 .5-1 1-3 1.8l-7 2.6c-2.7 1-5.3 2.1-7.8 3.5a16.6 16.6 0 0 0-5.7 4.6l115.3 1.1zm-115.8 4.7c1 2.3 3 4.2 6.3 5.8 3.2 1.7 7.1 3 11.9 4a122 122 0 0 0 16 2.4 216.1 216.1 0 0 0 38.7-.3c5.6-.7 10.5-1.5 14.8-2.6a69.4 69.4 0 0 0 19.8-8.2l-107.5-1.1zm275.3-3c-1-2.3-3.2-4.3-6.8-6a61.5 61.5 0 0 0-13.7-4.4c-5.5-1.2-12-2-19.4-2.6a299.9 299.9 0 0 0-45 .3c-5.6.6-10.6 1.5-14.8 2.7a54.3 54.3 0 0 0-18.9 8.7l118.6 1.2z" style="fill:#fcb048"/><linearGradient id="O" x1="628.6" x2="642.3" y1="1628.7" y2="1743.7" gradientTransform="rotate(180 834.6 2064)" gradientUnits="userSpaceOnUse"><stop offset="0" style="stop-color:#f36f56"/><stop offset=".3" style="stop-color:#f99c4c"/><stop offset=".5" style="stop-color:#fdb946"/><stop offset=".7" style="stop-color:#ffc444"/><stop offset=".8" style="stop-color:#ffc244"/><stop offset=".9" style="stop-color:#feba46"/><stop offset=".9" style="stop-color:#fcad49"/><stop offset="1" style="stop-color:#f99a4d"/><stop offset="1" style="stop-color:#f58152"/><stop offset="1" style="stop-color:#f57e53"/></linearGradient><path d="M1033.4 2400.6c-165 0-336.9 14.5-364.3 42.6l3 3.2c23.1-19.5 165-39.2 361.3-39.2 201.3 0 345.5 20.7 363 40.7l2.7-3.1c-22.7-29.1-197.8-44.2-365.7-44.2z" style="fill:url(#O)"/><linearGradient id="P" x1="1753.8" x2="2605.3" y1="2223.4" y2="2223.4" gradientTransform="rotate(54.6 1330.4 2031)" gradientUnits="userSpaceOnUse"><stop offset="0" style="stop-color:#f57e53"/><stop offset="0" style="stop-color:#f58152"/><stop offset="0" style="stop-color:#f99a4d"/><stop offset=".1" style="stop-color:#fcad49"/><stop offset=".1" style="stop-color:#feba46"/><stop offset=".2" style="stop-color:#ffc244"/><stop offset=".3" style="stop-color:#ffc444"/><stop offset=".5" style="stop-color:#fdb946"/><stop offset=".7" style="stop-color:#f99c4c"/><stop offset="1" style="stop-color:#f36f56"/></linearGradient><path d="m1508.7 2501.3-66.9 47.6c-21.6 15.4 57 162.9 175.4 329.4 118.5 166.6 232 289.2 253.7 273.8l66.9-47.6-429-603.2z" style="fill:url(#P)"/><linearGradient id="Q" x1="2183.4" x2="2228.3" y1="2127.4" y2="2503.2" gradientTransform="rotate(54.6 1330.4 2031)" gradientUnits="userSpaceOnUse"><stop offset="0" style="stop-color:#ffdb44"/><stop offset="1" style="stop-color:#feef06"/></linearGradient><path d="M1937.8 3104.5c-21.7 15.4-135.2-107.2-253.7-273.8-118.5-166.5-197-314-175.4-329.4 21.6-15.4 135.2 107.2 253.7 273.8 118.4 166.5 197 314 175.4 329.4z" style="fill:url(#Q)"/><linearGradient id="R" x1="2181.5" x2="2195.3" y1="2110.7" y2="2226.1" gradientTransform="rotate(54.6 1330.4 2031)" gradientUnits="userSpaceOnUse"><stop offset="0" style="stop-color:#ffdb44"/><stop offset="1" style="stop-color:#feef06"/></linearGradient><path d="M1681.4 2832.7c-105-147.5-200.6-311.8-173.4-331.2 1.5-1 4.5-2.3 5.6-.9 1 1.5-1.5 2.4-3 3.4-17.2 12.3 51 148.7 176.2 324.8 125.3 176.2 231.8 285.2 249 273 1.5-1 3.1-1.8 4.2-.3 1 1.5-1.2 2.5-2.7 3.6-27.2 19.3-151-125-255.9-272.4z" style="fill:url(#R)"/><path d="M1700.8 2776c4.1 1.5 8.4 3.2 12.8 5.1 4.4 2 9.2 5 14.6 9.1a152 152 0 0 1 18 17.1c6.7 7.3 14.4 16.8 22.9 28.7a489 489 0 0 1 22.2 33.6 274 274 0 0 1 15.6 29.5c4 8.9 6.5 16.6 7.6 23.1 1.1 6.5.5 11.3-1.8 14.4l23.8 34.2c1.7 2.5 3 4.8 4 7 1 2.1 1.1 3.4.5 3.8l-2.7 2-30.7-44c-4.5 1-10.4-.7-17.7-5a145.5 145.5 0 0 1-24.4-18.6l-9.1-17.5a24 24 0 0 1-1.7-4.1c-.3-1.2-.3-1.9.1-2.2.6-.3 2 .5 4.5 2.4a153.7 153.7 0 0 0 18.5 13.1c3.6 2 6.6 2.8 9.3 2.4l-72.3-103.8a72.8 72.8 0 0 1-27-14.6 171.6 171.6 0 0 1-18.5-18 360 360 0 0 1-23.8-30.2 381 381 0 0 1-18.6-28.4 232.2 232.2 0 0 1-13.6-26.4 88 88 0 0 1-6.6-21.2c-1-6.1-.2-10.4 2.3-13l-19.5-28.2a44.8 44.8 0 0 1-4.2-7c-1-2.2-1.2-3.5-.5-4l2.7-2 26.9 38.5c4.1-.4 9.1 1.2 15 5 6 3.7 12.6 8.8 19.7 15.2l7.4 14c2.2 4.3 3 6.7 2.2 7.3-.4.2-1.5-.2-3.2-1.4l-6.2-4.2a76 76 0 0 0-7.4-4.4c-2.5-1.3-4.9-2-7-2l65.9 94.7zm-70.9-91.6c-1.3 2-1.7 4.9-1.1 8.4a47 47 0 0 0 3.6 12c2 4.6 4.4 9.4 7.4 14.5a216 216 0 0 0 22.6 31.3c3.8 4.2 7.4 7.8 10.7 10.6a69.5 69.5 0 0 0 18.2 11.3l-61.4-88.1zm162 222.5c1.4-2 1.7-5.1 1-9-.7-4-2.2-8.5-4.4-13.7-2.3-5.2-5.3-11-9.2-17.3a299.9 299.9 0 0 0-26.2-36.5 115 115 0 0 0-10.8-10.5 54.1 54.1 0 0 0-18.1-10.3l67.8 97.3z" style="fill:#fcb048"/><linearGradient id="S" x1="-524.6" x2="-510.9" y1="1913.4" y2="2028.4" gradientTransform="rotate(-125.4 818 1808)" gradientUnits="userSpaceOnUse"><stop offset="0" style="stop-color:#f36f56"/><stop offset=".3" style="stop-color:#f99c4c"/><stop offset=".5" style="stop-color:#fdb946"/><stop offset=".7" style="stop-color:#ffc444"/><stop offset=".8" style="stop-color:#ffc244"/><stop offset=".9" style="stop-color:#feba46"/><stop offset=".9" style="stop-color:#fcad49"/><stop offset="1" style="stop-color:#f99a4d"/><stop offset="1" style="stop-color:#f58152"/><stop offset="1" style="stop-color:#f57e53"/></linearGradient><path d="M1758.2 2778.1c-95.7-134.5-207.1-266-246-272.2-.1 1.5-.4 3-.8 4.3 29.3 7.6 127.6 111.8 241.4 271.8 116.7 164 183.4 293.5 177.2 319.3 1.4 0 2.8.2 4.1.4 10.6-35.3-78.6-186.7-176-323.6z" style="fill:url(#S)"/><linearGradient id="T" x1="1424" x2="1084.4" y1="967.8" y2="3854.5" gradientUnits="userSpaceOnUse"><stop offset="0" style="stop-color:#f36f56"/><stop offset="1" style="stop-color:#ffc444"/></linearGradient><path d="M1658.7 1469.5c-5-4.3-12-5.6-18.2-3.3l-418 152.3a18.3 18.3 0 0 0-5.4 31.3l70.5 58.7-.4.2-7 5.8a553015.3 553015.3 0 0 0-269 236.5 18.3 18.3 0 0 0 .3 27.8 2675715.7 2675715.7 0 0 0 241.7 202.7s26.8 23.7 53.6-11.3c-7.5-2-15.3-4.4-21-6.1a48081.7 48081.7 0 0 1 190-298.8l74.3 61.8s.5.6 1.7 1.3c1.4 1 3 1.7 4.6 2.2 5.8 2 15.5 3.1 29.8-2.1 25-9.3 25-20.5 26-25.3.5-2.7-15-5.2-28.5-6.8l81-409.4c1.3-6.5-1-13.2-6-17.5z" style="fill:url(#T)"/><linearGradient id="U" x1="1347.5" x2="1112.4" y1="1323.3" y2="3321.6" gradientUnits="userSpaceOnUse"><stop offset="0" style="stop-color:#ffc444"/><stop offset="1" style="stop-color:#f36f56"/></linearGradient><path d="M1497.1 1681.4c-41.6-34.7-119.5-26.2-178.3 17.8a170 170 0 0 0-7 5.8 553015.3 553015.3 0 0 0-269 236.5 18.3 18.3 0 0 0 .3 27.8l239.7 201.2a18.3 18.3 0 0 0 27.3-4.2 48304.7 48304.7 0 0 1 192.8-303c1.7-2.6 3.2-5.1 4.6-7.7 34.4-64 31-139.7-10.4-174.2z" style="fill:url(#U)"/><linearGradient id="V" x1="1485.2" x2="1246.8" y1="1416" y2="3442.6" gradientUnits="userSpaceOnUse"><stop offset="0" style="stop-color:#ffc444"/><stop offset="1" style="stop-color:#f36f56"/></linearGradient><path d="M1690.3 1460c-5-4.3-12-5.5-18.1-3.3l-418 152.3a18.3 18.3 0 0 0-5.4 31.3l332.9 277.3a18.3 18.3 0 0 0 29.7-10.5l85-429.6c1.3-6.5-1-13.2-6-17.5z" style="fill:url(#V)"/><linearGradient id="W" x1="607.9" x2="144" y1="720.5" y2="1283.7" gradientTransform="rotate(-19.2 2881.9 -1882.9)" gradientUnits="userSpaceOnUse"><stop offset="0" style="stop-color:#f36f56"/><stop offset="1" style="stop-color:#ffc444"/></linearGradient><path d="M1624.8 1314.5c9 52.5 10.6 96.2 3.7 98.7-6.9 2.3-32.9-32.9-58.4-79.6-25.5-46.6-28.3-93.9-5-102.1 23.4-8.1 50.6 30.6 59.7 83z" style="fill:url(#W)"/><linearGradient id="X" x1="3896.3" x2="3432.4" y1="1457.4" y2="2020.5" gradientTransform="rotate(37 2939 -1869)" gradientUnits="userSpaceOnUse"><stop offset="0" style="stop-color:#f36f56"/><stop offset="1" style="stop-color:#ffc444"/></linearGradient><path d="M1813.6 1363.5c-38.6 36.7-74 62.2-80 58-5.7-4.6 9-45.7 33.7-92.9 24.6-47.1 62.4-75.7 82.2-60.8 19.7 15 2.6 59-36 95.7z" style="fill:url(#X)"/><linearGradient id="Y" x1="6426.4" x2="5962.5" y1="-2067.4" y2="-1504.2" gradientTransform="rotate(114.1 2970 -1839.9)" gradientUnits="userSpaceOnUse"><stop offset="0" style="stop-color:#f36f56"/><stop offset="1" style="stop-color:#ffc444"/></linearGradient><path d="M1813.4 1565.4c-44.4-29.4-77.2-58.3-74.3-65 3-6.6 46.4-1.3 98 12.2 51.4 13.4 87.6 43.9 77.6 66.5-10.2 22.6-57 15.7-101.3-13.7z" style="fill:url(#Y)"/><linearGradient id="Z" x1="3988.2" x2="3933.3" y1="768.6" y2="889.1" gradientTransform="scale(-1 1) rotate(21.7 -1547 -15162.8)" gradientUnits="userSpaceOnUse"><stop offset="0" style="stop-color:#ab316d"/><stop offset="1" style="stop-color:#792d3d"/></linearGradient><path d="m2374.7 1684.9 4.3-12.6-12.8-11.8a9 9 0 0 0-10.5-1.2c-17.9 10.3-71.6 46.4-85.4 116.5a9 9 0 0 0 4 9.3 154 154 0 0 0 12.7 6.5l87.7-106.7z" style="fill:url(#Z)"/><linearGradient id="aa" x1="3923.9" x2="3865.9" y1="945.9" y2="1073.1" gradientTransform="scale(-1 1) rotate(21.7 -1547 -15162.8)" gradientUnits="userSpaceOnUse"><stop offset="0" style="stop-color:#ab316d"/><stop offset="1" style="stop-color:#792d3d"/></linearGradient><path d="m2441.8 1833-5.9 40.8s0 11.8-1.7 16.4c4.9 6 16.6 8.4 16.6 8.4l21.4-46.7-29-19.2-1.4.2z" style="fill:url(#aa)"/><linearGradient id="ab" x1="2405.5" x2="2457.7" y1="1876.6" y2="1876.6" gradientUnits="userSpaceOnUse"><stop offset="0" style="stop-color:#ffc444"/><stop offset="1" style="stop-color:#f36f56"/></linearGradient><path d="m2409.7 1910.9-4.2-26.7s-.7-23.5 22.6-39c23.2-15.7 29.6-2.2 29.6-2.2l-13.8 12.9s-9 8.3-8.6 27a96.8 96.8 0 0 1-9 32.7l-16.6-4.7z" style="fill:url(#ab)"/><linearGradient id="ac" x1="4018.3" x2="3761.1" y1="697.4" y2="1261.9" gradientTransform="scale(-1 1) rotate(21.7 -1547 -15162.8)" gradientUnits="userSpaceOnUse"><stop offset="0" style="stop-color:#ff9085"/><stop offset="1" style="stop-color:#fb6fbb"/></linearGradient><path d="M2509.4 1838.6s-106.8-95-130.4-166.3c-72.6 23-92 119.3-92 119.3s149.6 42.8 199.4 78.7c17.2-4.5 23-31.7 23-31.7z" style="fill:url(#ac)"/><linearGradient id="ad" x1="3855.1" x2="3840.4" y1="992.6" y2="1024.9" gradientTransform="scale(-1 1) rotate(21.7 -1547 -15162.8)" gradientUnits="userSpaceOnUse"><stop offset="0" style="stop-color:#ab316d"/><stop offset="1" style="stop-color:#792d3d"/></linearGradient><path d="M2494.7 1851.9s5-9.7 14.7-13.3c4.3-1.8 1.5 26.4-23 31.7l8.3-18.4z" style="fill:url(#ad)"/><linearGradient id="ae" x1="4098.9" x2="4239.1" y1="1696" y2="1696" gradientTransform="matrix(-1 0 0 1 6450.8 0)" gradientUnits="userSpaceOnUse"><stop offset="0" style="stop-color:#ab316d"/><stop offset="1" style="stop-color:#792d3d"/></linearGradient><path d="M2228.8 1789c4-1.6 7.2-5.3 7.8-10 16.5-128.5 105-152.1 105.9-152.3a12.5 12.5 0 1 0-6.1-24.2c-4.3 1-105.9 28-124.6 173.3a12.5 12.5 0 0 0 17 13.2z" style="fill:url(#ae)"/><linearGradient id="af" x1="-3481.9" x2="-3481.9" y1="3153.4" y2="3092.2" gradientTransform="translate(6258.5)" gradientUnits="userSpaceOnUse"><stop offset="0" style="stop-color:#ffc444"/><stop offset="1" style="stop-color:#f36f56"/></linearGradient><path d="M2759.8 3097s13.4 33.6 9.9 48.5c14.3-.3 23.6-2.1 23.6-2.1s-5.7-15.4-6.9-23c-1.5-10.2-1.4-26.8-1.4-26.8l-25.2 3.4z" style="fill:url(#af)"/><path d="M2512.8 3185a9.2 9.2 0 0 1 1.7 9.8c-2.2 5.7-5.6 6.4-9.2 12.5-2.3 3.7-1.9 4.8-4 6.5-2.6 2.2-6 2.3-8.8 2.3-4.8.1-11.7 0-20.4-1.1a483.4 483.4 0 0 1 21.4-25.7l13.4-4.5 6 .1z" style="fill:#26264f"/><linearGradient id="ag" x1="-3767.1" x2="-3767.1" y1="3180.4" y2="3110.1" gradientTransform="translate(6258.5)" gradientUnits="userSpaceOnUse"><stop offset="0" style="stop-color:#ffc444"/><stop offset="1" style="stop-color:#f36f56"/></linearGradient><path d="M2501.7 3119.7s-7.7 40 2 51.3c8.4 11.2-4 3.2-4 3.2l-14.7 12.9-8.9 15.3s8.2-39.2 6-54.8c-2.2-15.6-3.2-26-3.2-26l22.8-1.9z" style="fill:url(#ag)"/><linearGradient id="ah" x1="2640.7" x2="2565.6" y1="3507.5" y2="2565.5" gradientUnits="userSpaceOnUse"><stop offset="0" style="stop-color:#311944"/><stop offset="1" style="stop-color:#893976"/></linearGradient><path d="M2426.5 2367.4a981.2 981.2 0 0 0-32.9 150.5c-25.8 187.4 29 193.4 18.8 401-3.3 66.3 57.4 219.1 62.7 222.5a83.7 83.7 0 0 0 29.8-3.2c9.6-1.7 44.3-95.6 36.2-151.4-5.6-39.5-4-81.9-.7-166.7.5-13.7 35.7-267.2 35.7-267.2 10.7 93.8 23 173.5 33.6 235.4 34.3 198.6 145.6 318.8 151.4 320.7 1.2.5 11.6 4.3 20.2-1.3 3.8-2.5 5-5.8 5-5.8 3-2.3-.8-198.3-34.8-345.8-49.3-214-27.8-264.1-43.4-359.8-13.5-82.7-281.6-28.9-281.6-28.9z" style="fill:url(#ah)"/><path d="M2766.2 3158.2s-3.4 0-3 4.3c.2 4.3-1.6 19.1 15.4 19.8 16.9.7 19.5-1.2 20-1.2s-4.4-14.1-4.4-14.1l-5.4-7-14.6-1.5-8-.3z" style="fill:#26264f"/><path d="M2803.7 3173c-.3-3.5-2.3-9.1-4.4-13.6-3-6.8-.5-9.3-3.3-15.4a20 20 0 0 0-4-6.1c-.6-.5-5.2-4.8-12-4.6a12 12 0 0 0-5.7 1.4c-2.6 1.4-4 3.5-5 5.3-1.8 2.9-1.4 3.8-4.1 12-.2.8-.7 2.2-1 4.2-.4 1.5-.5 2.8-.5 3.7 4.4 0 21.5.7 25.1 3.3 3.6 2.7 5.4 7.1 5.4 11.5s2.2 6.6 4.5 6.4c2-.1 5.9-3.8 5-8zm-304.1-7.6c3.6 0 6.3 3 8.3 9.9 2 7 11.7 13.1.4 11.6-11.3-1.4-19.4 14.5-23.4 20.4-4 6-14.9 11.1-14.6 5.4.3-5.8 5-8.5 6.4-14.4 1.3-5.9 14.6-33 22.9-33z" style="fill:#444b8c"/><linearGradient id="ai" x1="2578.2" x2="2663.6" y1="1937.2" y2="1937.2" gradientUnits="userSpaceOnUse"><stop offset="0" style="stop-color:#ffc444"/><stop offset="1" style="stop-color:#f36f56"/></linearGradient><path d="M2578.8 1936.9a57 57 0 0 1 10.7-39.8c10.5-15 13-16.8 17.4-19.1l6-2.9.8-.2c3.8-.8 16.4.2 18.8 1 8 2.7 22.2 39.3 5 83-2 5 1.1 12 .6 11 10.1 18.4 24.5 11 25.3 13.4 2 5.3-16 6.6-33.4 12.3-21.8 7-48 4.5-49.6-2.7-.7-3 2.4-7.7 17.4-15.8l4.3-12.8c-3-2-21-13-23.3-27.4z" style="fill:url(#ai)"/><path d="M2603 1864.7c-5 8.7-3.2 21 1.3 28.8 2.7 4.7 4.5 4.7 5.2 8.1 2.1 9.5-13.6 18.5-11.3 23 1.7 3 10.1-.8 12.9 3 3 4.1-5.5 11-6.2 23.7-.1 2-.8 14 6.1 19 6.5 4.6 16.6.1 28-5a99.1 99.1 0 0 0 23.3-14.2 65.4 65.4 0 0 0 20.6-25 55 55 0 0 0 1.5-38 56.8 56.8 0 0 0-57.9-36.5c-3.6.5-17.6 2.3-23.6 13z" style="fill:#26264f"/><linearGradient id="aj" x1="2596.9" x2="2613" y1="1929.8" y2="1929.8" gradientUnits="userSpaceOnUse"><stop offset="0" style="stop-color:#ffc444"/><stop offset="1" style="stop-color:#f36f56"/></linearGradient><path d="M2603.8 1921.7c4.1-4.4 9.8.9 9.1 7.2-.7 6.3-7.5 12.1-13.3 10.2-5.8-2-1.3-11.4 4.2-17.4z" style="fill:url(#aj)"/><linearGradient id="ak" x1="-2416.8" x2="-2650.7" y1="2022.2" y2="1526.2" gradientTransform="translate(4942.7)" gradientUnits="userSpaceOnUse"><stop offset="0" style="stop-color:#aa80f9"/><stop offset="1" style="stop-color:#6165d7"/></linearGradient><path d="M2625.6 1979.2c-32.7-1-96.1-11.7-137.5 25.6a271.2 271.2 0 0 0-37.5 51.2 282.2 282.2 0 0 0-24.6 60.8 531.5 531.5 0 0 0-19.5 106.2c-7.5 99.6 0 145.5 6.8 176.8 29.6 15.2 105.8 42.4 196.7 28.9a307 307 0 0 0 98-32.3c-23.5-71.4-5-109.6 3.7-144.8 17.3-69.5 21.1-96.8 69.9-196.8 13.4-27.6 54.9-6.3 34.4-30.5-31.3-37-161-44.2-190.4-45.1z" style="fill:url(#ak)"/><linearGradient id="al" x1="-2473.4" x2="-2707.3" y1="1226.5" y2="730.6" gradientTransform="rotate(-21.7 2313.8 -11144.5)" gradientUnits="userSpaceOnUse"><stop offset="0" style="stop-color:#aa80f9"/><stop offset="1" style="stop-color:#6165d7"/></linearGradient><path d="M2515.1 1989.2c-30.9 8.8-90 35.3-95.8 27.6-1-1.2-1.8-3.5 4-19.7 11.7-32.3 21.6-41.2 20.6-56.9a42 42 0 0 0-9.6-23.2l-19.3-10c-5.6-4.3-11.2-8.6-19.2-10a151 151 0 0 0-42 12.9c-88 42.2-148.2 181.6-97.8 260.2 46.2 72.2 188.6 98 301.2 7.6.9-145.3-21-194.4-42-188.5z" style="fill:url(#al)"/><linearGradient id="am" x1="-1667.2" x2="-2045.7" y1="1821" y2="2103.9" gradientTransform="translate(4942.7)" gradientUnits="userSpaceOnUse"><stop offset="0" style="stop-color:#aa80f9"/><stop offset="1" style="stop-color:#6165d7"/></linearGradient><path d="M2542 2322.6c43.2-18.9 30.9-92.4 72.7-106 26.5-8.7 43.9 17 68.6 4.1 26.5-13.7 25.4-53 41.6-54a13 13 0 0 1 8.4 2.7c-8.3 26-13.5 49.4-21.6 82.2-8.7 35.2-27.2 73.4-3.6 144.8a307 307 0 0 1-98 32.3c-91 13.5-167.2-13.7-196.8-29a415 415 0 0 1-9.5-78.6 120.2 120.2 0 0 1 48.7-11c42.9-.1 61.4 24.7 89.4 12.5z" style="opacity:.3;fill:url(#am)"/><linearGradient id="an" x1="2661.2" x2="2710" y1="2328.4" y2="2328.4" gradientUnits="userSpaceOnUse"><stop offset="0" style="stop-color:#ffc444"/><stop offset="1" style="stop-color:#f36f56"/></linearGradient><path d="M2701.5 2315.2s-4.6 3-11.6 1.5-15.5-7.3-23.1-9.7c-7.7-2.5-8.3 8.8 3 14.6a62.9 62.9 0 0 1 25.3 26.2c4.2 8.8 14.9-10.7 14.9-10.7l-8.5-21.9z" style="fill:url(#an)"/><linearGradient id="ao" x1="-2261.7" x2="-2495.6" y1="1949" y2="1453" gradientTransform="translate(4942.7)" gradientUnits="userSpaceOnUse"><stop offset="0" style="stop-color:#aa80f9"/><stop offset="1" style="stop-color:#6165d7"/></linearGradient><path d="M2706.4 1993.9c17.3-.7 95.9-2 160.9 57 13 11.8 75.1 68.2 69.8 148.8-6.3 96.6-106.2 178.5-183 166.9-18-2.8-32.6-10.2-43.4-17.7l-12.8-36.1c-.2-25.9 14-44 21.2-54 17.9-24.5 43.4-28.8 47.2-50.6 2.1-12.1-3.8-22-9-30.8-18-30-46.6-33.8-61.4-49.2-15.2-15.8-32.7-55.6 10.5-134.3z" style="fill:url(#ao)"/><path d="m1308.3 1125.1 81.5 181.7 11.3 4.3s-7-67.3-8.6-72c-1.6-4.7-32.3-101.6-32.3-101.6l-51.9-12.4z" style="fill:#26264f"/><path d="m1678.5 732-618-63.3c-11.3-.7-20.7 9.7-20.7 23v404.1c0 13.6 10 25.7 21.6 26.3l566-10c13.7.6 84.5 29.7 84.5 15.4V735c0-14.8-18.9-2.1-33.4-3z" style="fill:#26264f"/><linearGradient id="ap" x1="1049" x2="1724.6" y1="990" y2="990" gradientUnits="userSpaceOnUse"><stop offset="0" style="stop-color:#e38ddd"/><stop offset="1" style="stop-color:#9571f6"/></linearGradient><path d="M1698.2 707.2 1069.9 669c-11.4-.7-20.9 9.7-20.9 23v405c0 13.7 10 25.8 21.7 26.3l255.6 12 74.8 175.8 61.4-170 236.8 12.2c14.2.6 25.3-10 25.3-24.3V735.4a28.3 28.3 0 0 0-26.4-28.2z" style="fill:url(#ap)"/><linearGradient id="aq" x1="1049" x2="1724.6" y1="913.6" y2="913.6" gradientUnits="userSpaceOnUse"><stop offset="0" style="stop-color:#e38ddd"/><stop offset="1" style="stop-color:#9571f6"/></linearGradient><path d="M1717.5 716.8 1056.3 674a24.6 24.6 0 0 0-7.3 17.9v59.7c11-4.9 20.2-5.5 27.8-4.5 21 3 26 18.4 67.2 42.6 39.1 23 43.3 14.3 60.8 30.5 34.3 31.8 19.2 65.2 49.5 99.5 32 36.3 60 12.4 107.1 48.9 51 39.4 34.6 78.9 77.3 107.8 61.2 41.5 125.5-17.7 180.4 23.9a107.6 107.6 0 0 1 34.8 50.8l45.4 2.2c14.2.6 25.3-10 25.3-24.3V735.4c0-7-2.7-13.6-7.1-18.6z" style="opacity:.3;fill:url(#aq)"/><path d="M1223.5 759.7c4.7.8 8.5 5.5 8.5 10.5V787a243.6 243.6 0 0 1 49 15c4 1.6 6.8 6.1 6.4 10.5l-2 21c-.5 5.5-5.9 8.4-11 5.7a125 125 0 0 0-40-13.4l-2.4-.4v48.3c24.5 8.9 42.5 19.8 54.1 32.6a66.1 66.1 0 0 1 17.3 46c0 19.3-6.3 34.3-19.1 45-12.9 10.9-31 16.2-54.3 16v18.6c0 5-3.8 8.6-8.5 8h-.1a10 10 0 0 1-8.6-10v-18.3l-3.8-.4a249.7 249.7 0 0 1-53.4-12.4c-4.3-1.6-7.3-6-6.9-10.6l2.4-27c.5-6 6.2-9 11.7-6.3a180 180 0 0 0 49.8 15.3l.2-53.7c-23.6-7.8-41.3-18-53-30.8a67.1 67.1 0 0 1-17.5-47c0-19.2 6.3-33.5 19-43 12.6-9.3 30.5-13 53.6-11.3v-17.2c0-5 3.9-8.3 8.6-7.5zm-8.6 63.9a26 26 0 0 0-17 4.9 17 17 0 0 0-6.2 14c0 5.8 2 10.7 5.7 14.9 3.8 4.1 9.6 7.6 17.5 10.5v-44.3zM1230 922v49.3c8 .6 14-1 18.2-4.6 4.3-3.6 6.4-9 6.4-16 0-6.6-2-12.1-5.9-16.7a48 48 0 0 0-18.7-12zm164-149a11 11 0 0 1 8.4 10.4v16.8a239.7 239.7 0 0 1 48.3 14.8c4 1.7 6.9 6.2 6.4 10.5l-2 20.9c-.5 5.5-5.7 8.4-10.7 5.7a123.2 123.2 0 0 0-39.6-13.4l-2.4-.4v48c24.2 9 42 19.7 53.5 32.5a66 66 0 0 1 17 45.7c0 19.2-6.2 34-18.8 44.8-12.7 10.8-30.6 16-53.7 15.9v18.5c0 5-3.7 8.5-8.4 8h-.1a10 10 0 0 1-8.5-10v-18.2l-3.8-.4a245.3 245.3 0 0 1-52.8-12.3c-4.2-1.6-7.1-6-6.7-10.5l2.3-27c.5-5.8 6.2-8.8 11.5-6.2a177.2 177.2 0 0 0 49.3 15.3l.2-53.5c-23.3-7.7-40.8-17.9-52.4-30.5a67 67 0 0 1-17.3-46.8c0-19 6.3-33.3 18.8-42.7 12.5-9.3 30.2-13 53-11.3v-17.1c0-5 3.8-8.3 8.5-7.4zm-8.5 63.5a26 26 0 0 0-16.9 5c-4 3.2-6 7.9-6 14 0 5.6 1.9 10.6 5.6 14.7a43 43 0 0 0 17.3 10.5v-44.2zm15 98v49c7.8.5 13.8-1 18-4.6 4.1-3.6 6.2-9 6.2-16 0-6.5-2-12-5.8-16.6-3.9-4.5-10-8.5-18.5-11.9zm162-148.3c4.6.9 8.3 5.5 8.3 10.4v16.6a236 236 0 0 1 47.9 14.7c4 1.7 6.7 6.1 6.3 10.5l-2 20.7c-.5 5.5-5.7 8.4-10.6 5.7a121.6 121.6 0 0 0-39.2-13.3l-2.4-.4V899c24 8.8 41.6 19.5 53 32.2a65.7 65.7 0 0 1 16.9 45.4c0 19.1-6.2 34-18.7 44.6-12.6 10.7-30.2 16-53 15.9v18.4c0 4.9-3.8 8.4-8.4 7.9h-.2a9.9 9.9 0 0 1-8.3-9.8v-18.2l-3.7-.4a241.5 241.5 0 0 1-52.3-12.3c-4.2-1.5-7-5.9-6.7-10.4l2.4-26.8c.5-5.7 6-8.7 11.4-6.2a174.6 174.6 0 0 0 48.7 15.2l.2-53.2c-23.1-7.6-40.4-17.7-51.8-30.3a66.7 66.7 0 0 1-17.2-46.5c0-19 6.3-33.1 18.7-42.5 12.3-9.2 29.8-13 52.4-11.2v-17c0-5 3.7-8.3 8.3-7.5zm-8.3 63.2c-7.2 0-12.7 1.6-16.7 4.9a17 17 0 0 0-6 13.9c0 5.6 1.8 10.5 5.5 14.6s9.4 7.6 17.2 10.4v-43.8zm14.7 97.3v48.7c7.8.6 13.7-.9 17.8-4.5 4.2-3.6 6.2-8.9 6.2-16 0-6.4-1.9-11.8-5.7-16.4a46 46 0 0 0-18.3-11.8z" style="fill:#fff"/></svg>